<svg width="852" height="430" viewBox="0 0 852 430" fill="none" xmlns="http://www.w3.org/2000/svg">
<path d="M266 0L272.765 18.725L293.161 19.1978L276.946 31.2433L282.787 50.2605L266 38.98L249.214 50.2605L255.055 31.2433L238.839 19.1978L259.235 18.725L266 0Z" fill="#FFEF63"/>
<path d="M266 374.433L272.765 393.158L293.161 393.631L276.946 405.677L282.787 424.694L266 413.413L249.214 424.694L255.055 405.677L238.839 393.631L259.235 393.158L266 374.433Z" fill="#FFEF63"/>
<path d="M155.5 28.8046L170.982 41.7303L188.889 32.2186L181.037 50.5377L195.869 64.1661L175.534 62.5622L166.794 80.4967L162.078 61.1864L141.845 58.6421L159.265 48.3115L155.5 28.8046Z" fill="#FFEF63"/>
<path d="M347.941 353.073L363.424 365.999L381.33 356.487L373.478 374.807L388.31 388.435L367.975 386.831L359.235 404.766L354.52 385.455L334.286 382.911L351.707 372.58L347.941 353.073Z" fill="#FFEF63"/>
<path d="M74.6084 107.5L94.6598 111.163L105.279 94.2155L107.894 113.9L127.743 118.488L109.308 126.99L110.957 146.773L96.9481 132.344L78.1177 139.982L87.8949 122.562L74.6084 107.5Z" fill="#FFEF63"/>
<path d="M407.927 294.717L427.978 298.38L438.597 281.432L441.212 301.116L461.061 305.704L442.626 314.207L444.275 333.99L430.266 319.56L411.436 327.199L421.213 309.779L407.927 294.717Z" fill="#FFEF63"/>
<path d="M45 215L64.2476 208.419L64.7335 188.577L77.1152 204.351L96.6631 198.669L85.0678 215L96.6631 231.331L77.1152 225.649L64.7335 241.424L64.2476 221.581L45 215Z" fill="#FFEF63"/>
<path d="M429.883 215L449.13 208.419L449.616 188.577L461.998 204.351L481.546 198.669L469.951 215L481.546 231.331L461.998 225.649L449.616 241.424L449.13 221.581L429.883 215Z" fill="#FFEF63"/>
<path d="M74.6084 322.5L87.8949 307.438L78.1177 290.018L96.9481 297.656L110.957 283.227L109.308 303.01L127.743 311.513L107.894 316.1L105.279 335.785L94.6598 318.837L74.6084 322.5Z" fill="#FFEF63"/>
<path d="M407.927 135.283L421.213 120.221L411.436 102.801L430.266 110.44L444.275 96.0104L442.626 115.793L461.061 124.296L441.212 128.884L438.597 148.568L427.978 131.62L407.927 135.283Z" fill="#FFEF63"/>
<path d="M155.5 401.195L159.265 381.689L141.845 371.358L162.078 368.814L166.794 349.503L175.534 367.438L195.869 365.834L181.037 379.462L188.889 397.781L170.982 388.27L155.5 401.195Z" fill="#FFEF63"/>
<path d="M347.941 76.9266L351.707 57.4197L334.286 47.0891L354.52 44.5449L359.235 25.2345L367.975 43.169L388.31 41.5651L373.478 55.1935L381.33 73.5126L363.424 64.0009L347.941 76.9266Z" fill="#FFEF63"/>
<path d="M11.1 271V169H77.1V187H31.8V210.85H68.1V228.55H31.8V253H77.1V271H11.1ZM113.957 236.95C113.957 248.85 120.007 254.8 132.107 254.8C144.207 254.8 150.257 248.85 150.257 236.95V169H170.957V236.5C170.957 249 167.707 258.2 161.207 264.1C154.807 269.9 145.107 272.8 132.107 272.8C119.107 272.8 109.357 269.9 102.857 264.1C96.4566 258.2 93.2566 249 93.2566 236.5V169H113.957V236.95ZM213.001 236.8V271H192.301V169H231.901C255.901 169 267.901 180.2 267.901 202.6C267.901 215.9 262.901 225.7 252.901 232L267.451 271H244.801L232.951 236.8H213.001ZM232.201 219.1C237.101 219.1 240.751 217.6 243.151 214.6C245.551 211.6 246.751 207.65 246.751 202.75C246.751 197.85 245.451 193.95 242.851 191.05C240.351 188.15 236.701 186.7 231.901 186.7H213.001V219.1H232.201ZM306.469 247C309.469 252.2 315.019 254.8 323.119 254.8C331.219 254.8 336.719 252.2 339.619 247C342.619 241.7 344.119 232.9 344.119 220.6C344.119 208.2 342.619 199.2 339.619 193.6C336.619 188 331.119 185.2 323.119 185.2C315.119 185.2 309.619 188 306.619 193.6C303.619 199.2 302.119 208.2 302.119 220.6C302.119 232.9 303.569 241.7 306.469 247ZM355.819 260.2C349.519 268.6 338.619 272.8 323.119 272.8C307.619 272.8 296.669 268.6 290.269 260.2C283.969 251.7 280.819 238.45 280.819 220.45C280.819 202.45 283.969 189.1 290.269 180.4C296.669 171.6 307.619 167.2 323.119 167.2C338.619 167.2 349.519 171.6 355.819 180.4C362.219 189.1 365.419 202.45 365.419 220.45C365.419 238.45 362.219 251.7 355.819 260.2ZM406.979 187.3V169H481.979V187.3H454.979V271H434.279V187.3H406.979ZM515.784 236.8V271H495.084V169H534.684C558.684 169 570.684 180.2 570.684 202.6C570.684 215.9 565.684 225.7 555.684 232L570.234 271H547.584L535.734 236.8H515.784ZM534.984 219.1C539.884 219.1 543.534 217.6 545.934 214.6C548.334 211.6 549.534 207.65 549.534 202.75C549.534 197.85 548.234 193.95 545.634 191.05C543.134 188.15 539.484 186.7 534.684 186.7H515.784V219.1H534.984ZM578.38 271L601.33 169H640.63L663.58 271H642.88L638.83 252.55H603.13L599.08 271H578.38ZM617.38 186.1L607.03 234.55H634.93L624.58 186.1H617.38ZM677.164 271V169H712.114L736.714 253H738.214V169H758.914V271H724.864L699.364 187H697.864V271H677.164ZM812.518 185.2C801.618 185.2 796.168 188.8 796.168 196C796.168 199.2 797.518 201.65 800.218 203.35C802.918 205.05 809.218 207.5 819.118 210.7C829.118 213.9 836.118 217.55 840.118 221.65C844.118 225.65 846.118 231.85 846.118 240.25C846.118 250.95 842.868 259.05 836.368 264.55C829.868 270.05 821.368 272.8 810.868 272.8C803.068 272.8 793.518 271.6 782.218 269.2L776.818 268.15L778.918 252.1C792.318 253.9 802.568 254.8 809.668 254.8C820.268 254.8 825.568 250.4 825.568 241.6C825.568 238.4 824.318 235.9 821.818 234.1C819.418 232.3 814.568 230.35 807.268 228.25C795.668 224.95 787.468 221.05 782.668 216.55C777.968 211.95 775.618 205.6 775.618 197.5C775.618 187.3 778.718 179.7 784.918 174.7C791.118 169.7 799.618 167.2 810.418 167.2C817.818 167.2 827.218 168.2 838.618 170.2L844.018 171.25L842.368 187.6C828.268 186 818.318 185.2 812.518 185.2Z" fill="black"/>
</svg>
